<?xml version="1.0" encoding="UTF-8" standalone="no"?>
<!-- Created with Inkscape (http://www.inkscape.org/) -->

<svg
   xmlns:dc="http://purl.org/dc/elements/1.1/"
   xmlns:cc="http://creativecommons.org/ns#"
   xmlns:rdf="http://www.w3.org/1999/02/22-rdf-syntax-ns#"
   xmlns:svg="http://www.w3.org/2000/svg"
   xmlns="http://www.w3.org/2000/svg"
   xmlns:sodipodi="http://sodipodi.sourceforge.net/DTD/sodipodi-0.dtd"
   xmlns:inkscape="http://www.inkscape.org/namespaces/inkscape"
   width="24mm"
   height="24mm"
   viewBox="0 0 24 24"
   version="1.1"
   id="svg8"
   sodipodi:docname="ic_sticker.svg"
   inkscape:version="0.92.5 (2060ec1f9f, 2020-04-08)">
  <defs
     id="defs2" />
  <sodipodi:namedview
     id="base"
     pagecolor="#ffffff"
     bordercolor="#666666"
     borderopacity="1.0"
     inkscape:pageopacity="0.0"
     inkscape:pageshadow="2"
     inkscape:zoom="4"
     inkscape:cx="5.4548189"
     inkscape:cy="71.290414"
     inkscape:document-units="mm"
     inkscape:current-layer="svg8"
     showgrid="false"
     inkscape:window-width="1876"
     inkscape:window-height="1051"
     inkscape:window-x="44"
     inkscape:window-y="0"
     inkscape:window-maximized="1"
     inkscape:object-paths="true"
     inkscape:object-nodes="true"
     inkscape:snap-intersection-paths="true"
     inkscape:snap-global="true"
     inkscape:snap-smooth-nodes="false"
     inkscape:snap-midpoints="true" />
  <metadata
     id="metadata5">
    <rdf:RDF>
      <cc:Work
         rdf:about="">
        <dc:format>image/svg+xml</dc:format>
        <dc:type
           rdf:resource="http://purl.org/dc/dcmitype/StillImage" />
        <dc:title></dc:title>
      </cc:Work>
    </rdf:RDF>
  </metadata>
  <path
     sodipodi:type="inkscape:offset"
     inkscape:radius="0.61723572"
     inkscape:original="M 17.623047 3.0683594 C 17.509421 3.0655494 17.393876 3.0680084 17.279297 3.078125 L 6.4902344 3.078125 C 4.5726672 3.0249708 2.9115899 4.8344018 3.0839844 6.7363281 C 3.0869044 10.385764 3.0795738 14.036202 3.0898438 17.685547 C 3.1383328 19.540878 4.9086202 21.084854 6.75 20.921875 L 11.855469 20.921875 L 12.105469 20.921875 L 12.355469 20.669922 L 20.644531 12.349609 L 20.927734 12.064453 L 20.927734 11.849609 C 20.927794 9.9997499 20.927719 8.1505896 20.923828 6.3007812 C 20.878728 4.5685513 19.327443 3.1105255 17.623047 3.0683594 z M 12.095703 4.0761719 C 13.93776 4.0746119 15.779621 4.0764408 17.621094 4.0917969 C 19.0166 4.1998379 20.08292 5.57683 19.927734 6.9511719 L 19.927734 11.849609 L 13.728516 11.849609 C 13.471455 11.849609 13.22575 11.902783 13.001953 11.998047 C 12.778155 12.093317 12.576116 12.230525 12.40625 12.400391 C 12.236384 12.570256 12.099172 12.772297 12.003906 12.996094 C 11.908636 13.219891 11.855469 13.465594 11.855469 13.722656 L 11.855469 19.921875 C 10.175931 19.921532 8.4977933 19.918927 6.8183594 19.908203 C 5.2022402 19.843685 3.9152358 18.271407 4.0839844 16.679688 C 4.0924326 13.222849 4.0677822 9.7667037 4.0976562 6.3105469 C 4.2045509 5.0752806 5.3270093 4.0566644 6.5683594 4.078125 C 8.4101806 4.082465 10.253646 4.0777473 12.095703 4.0761719 z M 14.162109 12.849609 L 15.355469 12.849609 L 18.732422 12.849609 L 12.855469 18.75 L 12.855469 15.349609 L 12.855469 14.15625 C 12.855469 13.977032 12.892568 13.804462 12.958984 13.648438 C 13.025404 13.492411 13.121807 13.352801 13.240234 13.234375 C 13.35866 13.115948 13.498271 13.019543 13.654297 12.953125 C 13.810323 12.886705 13.982892 12.849609 14.162109 12.849609 z "
     style="color:#000000;font-style:normal;font-variant:normal;font-weight:normal;font-stretch:normal;font-size:medium;line-height:normal;font-family:sans-serif;font-variant-ligatures:normal;font-variant-position:normal;font-variant-caps:normal;font-variant-numeric:normal;font-variant-alternates:normal;font-feature-settings:normal;text-indent:0;text-align:start;text-decoration:none;text-decoration-line:none;text-decoration-style:solid;text-decoration-color:#000000;letter-spacing:normal;word-spacing:normal;text-transform:none;writing-mode:lr-tb;direction:ltr;text-orientation:mixed;dominant-baseline:auto;baseline-shift:baseline;text-anchor:start;white-space:normal;shape-padding:0;clip-rule:nonzero;display:inline;overflow:visible;visibility:visible;opacity:1;isolation:auto;mix-blend-mode:normal;color-interpolation:sRGB;color-interpolation-filters:linearRGB;solid-color:#000000;solid-opacity:1;vector-effect:none;fill:#000000;fill-opacity:1;fill-rule:nonzero;stroke:none;stroke-width:1;stroke-linecap:square;stroke-linejoin:miter;stroke-miterlimit:40;stroke-dasharray:none;stroke-dashoffset:0;stroke-opacity:1;paint-order:normal;color-rendering:auto;image-rendering:auto;shape-rendering:auto;text-rendering:auto;enable-background:accumulate"
     id="path4812"
     d="m 17.638672,2.4511719 c -0.11531,-0.00285 -0.236952,0.00108 -0.359375,0.00977 H 6.5078125 C 4.1925376,2.396759 2.2610006,4.5009931 2.46875,6.7929688 l -0.00195,-0.056641 c 0.00292,3.6482799 -0.00442,7.2998419 0.00586,10.9511719 a 0.61729744,0.61729744 0 0 0 0,0.01367 c 0.058506,2.238617 2.1150294,4.032162 4.3320313,3.835937 L 6.75,21.539062 h 5.105469 0.25 a 0.61729744,0.61729744 0 0 0 0.4375,-0.18164 l 0.25,-0.251953 8.289062,-8.320313 L 21.365234,12.5 a 0.61729744,0.61729744 0 0 0 0.179688,-0.435547 v -0.214844 c 6e-5,-1.8498887 -1.4e-5,-3.7001239 -0.0039,-5.5507809 a 0.61729744,0.61729744 0 0 0 0,-0.013672 C 21.486566,4.1938021 19.685497,2.5018096 17.638672,2.4511719 Z m -5.542969,2.2421875 c 1.829572,-0.00155 3.657616,5.622e-4 5.484375,0.015625 1.014403,0.082688 1.848797,1.1605015 1.734375,2.1738281 a 0.61729744,0.61729744 0 0 0 -0.0039,0.068359 v 4.2812501 h -5.582031 c -0.34218,0 -0.671313,0.07066 -0.96875,0.197266 -0.297129,0.126486 -0.563672,0.309764 -0.789063,0.535156 -0.225391,0.225389 -0.40867,0.491924 -0.535156,0.789062 -0.126626,0.297454 -0.197266,0.626581 -0.197266,0.96875 v 5.580078 C 9.7727653,19.301874 8.3083381,19.300307 6.84375,19.291016 5.6139527,19.24192 4.5676965,17.9663 4.6972656,16.744141 a 0.61729744,0.61729744 0 0 0 0.00391,-0.0625 c 0.00842,-3.446433 -0.015574,-6.8868576 0.013672,-10.322266 0.079886,-0.892733 0.9478119,-1.6795516 1.84375,-1.6640625 a 0.61729744,0.61729744 0 0 0 0.00781,0 c 1.8438457,0.00434 3.6879418,-3.783e-4 5.5292968,-0.00195 z m 2.066406,8.7734376 h 1.19336 1.890625 l -3.773438,3.789062 v -1.90625 -1.193359 c 0,-0.09404 0.02007,-0.184299 0.05469,-0.265625 0.03409,-0.08008 0.08309,-0.155357 0.148437,-0.220703 0.06535,-0.06535 0.140636,-0.114354 0.220703,-0.148438 0.08132,-0.03462 0.171582,-0.05469 0.265625,-0.05469 z"
     transform="translate(8.2803066e-4,-0.00103277)" />
</svg>
